<?xml version="1.0" standalone="no"?>
<!DOCTYPE svg PUBLIC "-//W3C//DTD SVG 20010904//EN"
 "http://www.w3.org/TR/2001/REC-SVG-20010904/DTD/svg10.dtd">
<svg version="1.0" xmlns="http://www.w3.org/2000/svg"
 width="133.000000pt" height="319.000000pt" viewBox="0 0 133.000000 319.000000"
 preserveAspectRatio="xMidYMid meet">
<metadata>
Created by potrace 1.16, written by Peter Selinger 2001-2019
</metadata>
<g transform="translate(0.000000,319.000000) scale(0.100000,-0.100000)"
fill="#000000" stroke="none">
<path d="M1062 3072 c-6 -2 -12 -15 -12 -28 0 -30 -16 -31 -24 -1 l-6 22 -20
-24 c-12 -14 -20 -18 -20 -10 -1 8 -7 1 -15 -16 l-14 -30 5 30 5 30 -15 -30
c-11 -22 -15 -25 -15 -11 -1 16 -3 17 -18 5 -15 -13 -16 -11 -10 25 4 23 3 35
-3 30 -4 -5 -10 -20 -12 -34 -1 -14 -9 -25 -17 -25 -14 0 -55 -110 -47 -130 2
-5 9 11 16 38 14 52 33 76 24 29 -4 -17 -1 -32 5 -36 6 -4 9 -11 6 -16 -3 -5
-1 -11 5 -15 6 -4 10 8 10 28 0 22 6 37 15 41 8 3 15 0 15 -7 0 -8 4 -7 10 3
7 10 8 1 4 -30 -5 -28 -18 -57 -36 -78 -27 -31 -28 -32 -23 -9 4 14 2 28 -4
31 -6 4 -11 2 -11 -3 0 -6 -6 -11 -14 -11 -7 0 -18 -15 -24 -32 -11 -32 -11
-31 -6 12 l5 45 -22 -45 c-12 -25 -32 -85 -46 -135 -46 -169 -65 -240 -73
-280 -4 -22 -13 -41 -19 -43 -6 -2 -11 -12 -11 -22 0 -10 -4 -22 -10 -25 -5
-3 -7 -19 -4 -34 8 -38 -11 -48 -31 -17 -12 17 -14 35 -9 62 7 37 7 37 20 13
7 -13 14 -21 15 -16 1 4 2 10 3 15 1 4 5 12 9 19 4 6 3 23 -3 38 -15 39 -11
44 8 10 15 -28 17 -28 20 -8 2 12 -12 59 -31 105 -19 45 -38 94 -42 108 -4 14
-18 48 -30 75 -24 52 -32 71 -109 265 -25 63 -50 116 -57 119 -6 2 -21 -2 -34
-9 -13 -7 -39 -11 -59 -8 -28 3 -37 0 -42 -14 -3 -10 -9 -16 -13 -13 -9 5 -27
-28 -34 -60 -4 -17 -5 -16 -7 5 l-2 25 -6 -23 c-11 -38 -27 -30 -33 18 l-6 45
-1 -47 c-1 -26 -7 -48 -14 -50 -9 -3 -12 -120 -12 -479 -1 -261 1 -532 4 -604
l5 -130 35 -1 c19 -1 46 -6 60 -11 34 -14 50 -6 50 23 0 13 5 24 10 24 6 0 10
-9 10 -20 0 -11 5 -20 10 -20 6 0 10 56 10 148 0 81 3 298 7 483 4 228 3 338
-4 342 -7 4 -11 -9 -11 -35 -1 -22 -6 -46 -13 -52 -9 -8 -10 0 -5 36 8 55 -5
91 -15 43 -4 -20 -7 -7 -7 40 0 48 2 64 8 50 8 -19 9 -19 9 3 1 14 5 20 12 17
6 -4 8 -9 5 -12 -3 -3 1 -18 9 -32 7 -15 26 -65 41 -111 34 -109 113 -312 125
-324 13 -14 11 -1 -5 38 -12 28 -12 33 0 33 8 0 14 -3 15 -6 4 -29 9 -45 19
-55 9 -8 11 -5 6 14 -5 19 -2 17 13 -10 23 -39 27 -65 9 -54 -8 5 -9 2 -3 -12
4 -10 10 -32 13 -49 5 -30 24 -67 49 -95 8 -8 21 -24 29 -35 13 -16 15 -17 10
-2 -3 11 0 17 10 17 8 0 12 5 9 10 -10 16 0 12 25 -10 27 -24 48 -26 56 -5 7
17 25 21 21 4 -1 -6 3 -13 9 -16 6 -2 18 25 29 64 17 67 51 176 106 343 45
136 79 261 78 284 0 15 -4 12 -13 -13 -7 -19 -18 -37 -24 -39 -14 -4 -16 10
-3 23 15 17 23 55 12 55 -6 0 -11 -7 -11 -17 0 -9 -3 -14 -6 -11 -3 3 0 26 7
49 9 36 13 40 19 24 6 -16 8 -13 14 18 19 103 24 6 19 -373 -4 -295 -2 -410 6
-410 7 0 11 20 11 50 0 30 4 50 11 50 7 0 9 -16 4 -50 -8 -58 6 -94 16 -40 4
24 6 11 7 -40 0 -46 -3 -65 -7 -50 -5 19 -9 7 -14 -46 -7 -77 0 -164 14 -164
5 0 9 -17 10 -37 0 -35 1 -36 10 -13 8 20 12 22 19 10 7 -11 10 -8 10 13 0 15
5 27 10 27 6 0 10 10 11 23 1 21 1 21 9 -3 7 -22 8 -22 9 -4 2 41 16 35 28
-13 l11 -48 1 48 c1 29 5 46 11 42 6 -4 9 30 8 97 l-2 103 -6 -75 c-4 -41 -7
-59 -8 -39 -1 22 -8 39 -17 43 -8 3 -15 12 -15 21 0 8 -4 15 -10 15 -13 0 -13
-10 1 -49 10 -27 9 -35 -5 -49 -15 -15 -16 -15 -17 3 0 20 0 20 -8 0 -6 -14
-10 -4 -14 37 -6 45 -3 67 12 105 19 47 20 47 20 16 1 -18 6 -33 11 -33 6 0
10 7 10 15 0 8 5 15 10 15 6 0 10 21 11 48 0 35 3 42 9 27 5 -11 9 -36 11 -55
1 -29 3 -26 10 20 5 30 6 244 4 475 -4 286 -2 415 5 405 7 -11 10 -7 9 20 0
29 -2 31 -9 15 -8 -18 -9 -17 -9 6 -1 20 -7 28 -28 33 -14 4 -29 3 -32 -3 -4
-7 -18 -4 -36 8 -17 10 -36 16 -43 13z"/>
<path d="M843 1598 c7 -4 -15 -8 -48 -9 -43 -1 -53 -3 -35 -8 28 -9 -107 -4
-270 9 -104 8 -289 -3 -317 -18 -8 -5 109 -14 259 -21 150 -7 356 -16 458 -21
102 -5 215 -9 252 -10 l66 0 7 32 c12 55 -5 59 -207 56 -97 -1 -172 -6 -165
-10z"/>
<path d="M197 1402 l-68 -3 2 -32 c0 -18 -3 -49 -6 -69 -7 -33 -5 -38 11 -39
11 0 14 -3 7 -6 -7 -2 -13 -12 -13 -20 0 -12 13 -15 68 -13 37 2 97 2 135 1
l67 -1 1 -52 2 -53 7 40 c4 22 8 34 9 26 0 -8 4 -11 8 -7 4 3 13 -4 20 -16
l12 -23 1 27 c0 15 -5 30 -10 33 -11 7 -4 25 10 25 17 0 40 -32 40 -55 0 -12
-9 -42 -20 -66 l-20 -44 0 35 c-1 31 -2 33 -12 15 -11 -19 -11 -19 -19 0 -5
13 -8 0 -10 -40 l-2 -60 -6 50 -7 50 -8 -68 c-9 -74 0 -843 10 -859 4 -6 18
-8 33 -5 14 3 37 0 50 -8 33 -17 51 -9 52 24 1 17 3 20 6 9 2 -10 10 -18 18
-18 11 0 13 52 15 268 0 147 2 326 4 397 1 72 -1 155 -4 185 l-7 55 -2 -53
c-1 -35 -5 -51 -12 -47 -6 4 -10 19 -9 33 1 15 1 36 0 47 -2 17 -3 16 -10 -5
-6 -18 -8 -8 -9 40 0 45 2 60 9 50 7 -11 10 -5 11 25 2 30 3 33 6 13 6 -37 19
-36 27 2 5 28 9 30 53 31 30 1 37 4 21 6 -36 6 -36 23 0 23 21 0 24 2 12 10
-11 7 -4 10 25 10 29 0 36 -3 25 -10 -11 -7 -7 -10 20 -12 56 -3 95 2 98 12 2
6 12 10 23 10 18 0 19 1 3 25 -9 14 -23 25 -31 25 -13 0 -13 3 -3 15 9 10 9
15 1 15 -23 0 -10 19 17 23 25 4 24 4 -6 6 -19 0 -31 5 -27 11 4 6 -15 9 -52
8 l-58 -1 45 -7 c33 -5 37 -7 16 -8 -16 -1 -26 -5 -23 -9 4 -3 -1 -12 -11 -20
-15 -13 -15 -14 8 -9 14 3 32 1 40 -4 13 -9 13 -10 0 -10 -12 0 -12 -2 -1 -9
9 -6 3 -10 -20 -14 -23 -3 -44 1 -64 14 -29 18 -29 19 -6 19 19 0 21 3 12 14
-9 11 -9 15 1 19 7 3 -5 6 -27 7 -38 2 -39 3 -10 9 l30 7 -32 8 c-29 7 -291 6
-466 -2z"/>
<path d="M1067 1393 c-4 -3 -7 -15 -7 -25 0 -10 -4 -18 -10 -18 -5 0 -9 5 -7
11 1 6 -3 13 -9 16 -9 3 -12 -88 -14 -349 -1 -194 -2 -362 -2 -373 -1 -11 0
-58 1 -105 3 -79 4 -82 12 -41 14 73 19 60 20 -55 1 -143 5 -229 15 -284 l7
-45 13 30 c10 22 13 25 14 11 0 -20 0 -20 15 0 16 22 20 48 5 39 -5 -3 -10 1
-10 9 0 25 28 19 33 -6 4 -20 4 -19 6 5 2 47 21 29 22 -20 0 -40 2 -44 10 -25
5 13 6 34 3 46 -4 16 0 25 10 29 21 8 21 36 0 44 -11 4 -14 14 -10 34 3 18 1
31 -8 36 -7 4 -16 17 -21 28 -7 17 -9 18 -12 3 -2 -9 1 -26 7 -37 8 -16 8 -27
-1 -43 -12 -22 -12 -22 -20 -3 -8 20 -8 20 -9 0 -1 -11 -6 4 -11 33 -7 41 -6
61 5 85 8 18 17 41 19 52 3 11 5 3 6 -17 1 -37 20 -55 22 -20 0 14 2 14 9 -3
6 -14 9 -1 11 45 l2 65 8 -45 c4 -25 8 -67 8 -94 1 -27 3 -47 6 -44 6 5 5 391
0 683 -2 83 -3 191 -4 241 -1 83 -3 92 -21 97 -11 3 -22 1 -26 -4 -3 -5 -18
-2 -34 6 -32 17 -43 18 -53 8z"/>
</g>
</svg>
